<mxfile host="app.diagrams.net" agent="Mozilla/5.0 (Macintosh; Intel Mac OS X 10_15_7) AppleWebKit/537.36 (KHTML, like Gecko) Chrome/138.0.0.0 Safari/537.36" version="28.1.1">
  <diagram name="Страница — 1" id="j_y9czIBQOnDr5iY_I59">
    <mxGraphModel dx="1433" dy="1930" grid="1" gridSize="10" guides="1" tooltips="1" connect="1" arrows="1" fold="1" page="1" pageScale="1" pageWidth="583" pageHeight="827" math="0" shadow="0">
      <root>
        <mxCell id="0" />
        <mxCell id="1" parent="0" />
        <mxCell id="io1wwQr1_xJZZvbiRL2H-1" value="Черновик" style="rounded=1;whiteSpace=wrap;html=1;" parent="1" vertex="1">
          <mxGeometry x="330" y="210" width="120" height="40" as="geometry" />
        </mxCell>
        <mxCell id="io1wwQr1_xJZZvbiRL2H-2" value="Запланировано" style="rounded=1;whiteSpace=wrap;html=1;" parent="1" vertex="1">
          <mxGeometry x="330" y="330" width="120" height="40" as="geometry" />
        </mxCell>
        <mxCell id="io1wwQr1_xJZZvbiRL2H-3" value="Отправляется" style="rounded=1;whiteSpace=wrap;html=1;" parent="1" vertex="1">
          <mxGeometry x="330" y="440" width="120" height="40" as="geometry" />
        </mxCell>
        <mxCell id="io1wwQr1_xJZZvbiRL2H-4" value="Доставлено" style="rounded=1;whiteSpace=wrap;html=1;" parent="1" vertex="1">
          <mxGeometry x="160" y="560" width="120" height="40" as="geometry" />
        </mxCell>
        <mxCell id="io1wwQr1_xJZZvbiRL2H-5" value="Ошибка отправки" style="rounded=1;whiteSpace=wrap;html=1;" parent="1" vertex="1">
          <mxGeometry x="490" y="560" width="120" height="40" as="geometry" />
        </mxCell>
        <mxCell id="io1wwQr1_xJZZvbiRL2H-6" value="Отменено" style="rounded=1;whiteSpace=wrap;html=1;" parent="1" vertex="1">
          <mxGeometry x="490" y="680" width="120" height="40" as="geometry" />
        </mxCell>
        <mxCell id="io1wwQr1_xJZZvbiRL2H-7" value="Прочитано&amp;nbsp;" style="rounded=1;whiteSpace=wrap;html=1;" parent="1" vertex="1">
          <mxGeometry x="60" y="680" width="120" height="40" as="geometry" />
        </mxCell>
        <mxCell id="io1wwQr1_xJZZvbiRL2H-8" value="Просрочено" style="rounded=1;whiteSpace=wrap;html=1;" parent="1" vertex="1">
          <mxGeometry x="290" y="680" width="120" height="40" as="geometry" />
        </mxCell>
        <mxCell id="io1wwQr1_xJZZvbiRL2H-9" value="Начало&amp;nbsp;" style="ellipse;whiteSpace=wrap;html=1;aspect=fixed;" parent="1" vertex="1">
          <mxGeometry x="365" y="80" width="50" height="50" as="geometry" />
        </mxCell>
        <mxCell id="io1wwQr1_xJZZvbiRL2H-10" value="" style="endArrow=classic;html=1;rounded=0;fontSize=12;startSize=8;endSize=8;curved=1;entryX=0.5;entryY=0;entryDx=0;entryDy=0;exitX=0.5;exitY=1;exitDx=0;exitDy=0;" parent="1" source="io1wwQr1_xJZZvbiRL2H-9" target="io1wwQr1_xJZZvbiRL2H-1" edge="1">
          <mxGeometry width="50" height="50" relative="1" as="geometry">
            <mxPoint x="365" y="180" as="sourcePoint" />
            <mxPoint x="415" y="130" as="targetPoint" />
          </mxGeometry>
        </mxCell>
        <mxCell id="io1wwQr1_xJZZvbiRL2H-11" value="Менеджер создает&amp;nbsp;" style="edgeLabel;html=1;align=center;verticalAlign=middle;resizable=0;points=[];fontSize=12;" parent="io1wwQr1_xJZZvbiRL2H-10" vertex="1" connectable="0">
          <mxGeometry x="-0.325" y="1" relative="1" as="geometry">
            <mxPoint as="offset" />
          </mxGeometry>
        </mxCell>
        <mxCell id="io1wwQr1_xJZZvbiRL2H-12" value="" style="endArrow=classic;html=1;rounded=0;fontSize=12;startSize=8;endSize=8;curved=1;exitX=0.5;exitY=1;exitDx=0;exitDy=0;entryX=0.5;entryY=0;entryDx=0;entryDy=0;" parent="1" source="io1wwQr1_xJZZvbiRL2H-1" target="io1wwQr1_xJZZvbiRL2H-2" edge="1">
          <mxGeometry width="50" height="50" relative="1" as="geometry">
            <mxPoint x="380" y="320" as="sourcePoint" />
            <mxPoint x="400" y="320" as="targetPoint" />
          </mxGeometry>
        </mxCell>
        <mxCell id="io1wwQr1_xJZZvbiRL2H-13" value="Менеджер настроил шаблон и канал связи" style="edgeLabel;html=1;align=center;verticalAlign=middle;resizable=0;points=[];fontSize=12;" parent="io1wwQr1_xJZZvbiRL2H-12" vertex="1" connectable="0">
          <mxGeometry x="-0.1" y="5" relative="1" as="geometry">
            <mxPoint as="offset" />
          </mxGeometry>
        </mxCell>
        <mxCell id="io1wwQr1_xJZZvbiRL2H-14" value="" style="endArrow=classic;html=1;rounded=0;fontSize=12;startSize=8;endSize=8;curved=1;exitX=0.5;exitY=1;exitDx=0;exitDy=0;" parent="1" source="io1wwQr1_xJZZvbiRL2H-2" edge="1">
          <mxGeometry width="50" height="50" relative="1" as="geometry">
            <mxPoint x="360" y="430" as="sourcePoint" />
            <mxPoint x="390" y="436" as="targetPoint" />
          </mxGeometry>
        </mxCell>
        <mxCell id="io1wwQr1_xJZZvbiRL2H-15" value="Уведомление отправляется по расписанию по выбранному каналу связи" style="edgeLabel;html=1;align=center;verticalAlign=middle;resizable=0;points=[];fontSize=12;" parent="io1wwQr1_xJZZvbiRL2H-14" vertex="1" connectable="0">
          <mxGeometry x="-0.2121" y="-1" relative="1" as="geometry">
            <mxPoint as="offset" />
          </mxGeometry>
        </mxCell>
        <mxCell id="io1wwQr1_xJZZvbiRL2H-17" value="" style="endArrow=classic;html=1;rounded=0;fontSize=12;startSize=8;endSize=8;curved=0;exitX=1;exitY=0.5;exitDx=0;exitDy=0;entryX=0.417;entryY=-0.075;entryDx=0;entryDy=0;entryPerimeter=0;" parent="1" source="io1wwQr1_xJZZvbiRL2H-3" target="io1wwQr1_xJZZvbiRL2H-5" edge="1">
          <mxGeometry width="50" height="50" relative="1" as="geometry">
            <mxPoint x="500" y="490" as="sourcePoint" />
            <mxPoint x="540" y="550" as="targetPoint" />
            <Array as="points">
              <mxPoint x="540" y="460" />
            </Array>
          </mxGeometry>
        </mxCell>
        <mxCell id="io1wwQr1_xJZZvbiRL2H-20" value="Сбой при отправке&amp;nbsp;" style="edgeLabel;html=1;align=center;verticalAlign=middle;resizable=0;points=[];fontSize=12;" parent="io1wwQr1_xJZZvbiRL2H-17" vertex="1" connectable="0">
          <mxGeometry x="0.3048" y="1" relative="1" as="geometry">
            <mxPoint as="offset" />
          </mxGeometry>
        </mxCell>
        <mxCell id="io1wwQr1_xJZZvbiRL2H-18" value="" style="endArrow=classic;html=1;rounded=0;fontSize=12;startSize=8;endSize=8;curved=0;entryX=0.5;entryY=0;entryDx=0;entryDy=0;exitX=0;exitY=0.5;exitDx=0;exitDy=0;" parent="1" source="io1wwQr1_xJZZvbiRL2H-3" target="io1wwQr1_xJZZvbiRL2H-4" edge="1">
          <mxGeometry width="50" height="50" relative="1" as="geometry">
            <mxPoint x="320" y="460" as="sourcePoint" />
            <mxPoint x="230" y="470" as="targetPoint" />
            <Array as="points">
              <mxPoint x="220" y="460" />
            </Array>
          </mxGeometry>
        </mxCell>
        <mxCell id="io1wwQr1_xJZZvbiRL2H-19" value="Успешная отправка" style="edgeLabel;html=1;align=center;verticalAlign=middle;resizable=0;points=[];fontSize=12;" parent="io1wwQr1_xJZZvbiRL2H-18" vertex="1" connectable="0">
          <mxGeometry x="0.4476" y="2" relative="1" as="geometry">
            <mxPoint as="offset" />
          </mxGeometry>
        </mxCell>
        <mxCell id="io1wwQr1_xJZZvbiRL2H-21" value="" style="endArrow=classic;html=1;rounded=0;fontSize=12;startSize=8;endSize=8;curved=0;entryX=0.5;entryY=0;entryDx=0;entryDy=0;exitX=0.5;exitY=1;exitDx=0;exitDy=0;" parent="1" source="io1wwQr1_xJZZvbiRL2H-5" target="io1wwQr1_xJZZvbiRL2H-6" edge="1">
          <mxGeometry width="50" height="50" relative="1" as="geometry">
            <mxPoint x="440" y="670" as="sourcePoint" />
            <mxPoint x="490" y="620" as="targetPoint" />
          </mxGeometry>
        </mxCell>
        <mxCell id="io1wwQr1_xJZZvbiRL2H-22" value="Превышены попытки" style="edgeLabel;html=1;align=center;verticalAlign=middle;resizable=0;points=[];fontSize=12;" parent="io1wwQr1_xJZZvbiRL2H-21" vertex="1" connectable="0">
          <mxGeometry x="-0.2" y="1" relative="1" as="geometry">
            <mxPoint as="offset" />
          </mxGeometry>
        </mxCell>
        <mxCell id="io1wwQr1_xJZZvbiRL2H-23" value="" style="endArrow=classic;html=1;rounded=0;fontSize=12;startSize=8;endSize=8;curved=0;exitX=1;exitY=0.5;exitDx=0;exitDy=0;entryX=0.75;entryY=0;entryDx=0;entryDy=0;" parent="1" source="io1wwQr1_xJZZvbiRL2H-4" target="io1wwQr1_xJZZvbiRL2H-8" edge="1">
          <mxGeometry width="50" height="50" relative="1" as="geometry">
            <mxPoint x="315" y="600" as="sourcePoint" />
            <mxPoint x="330" y="680" as="targetPoint" />
            <Array as="points">
              <mxPoint x="380" y="580" />
            </Array>
          </mxGeometry>
        </mxCell>
        <mxCell id="io1wwQr1_xJZZvbiRL2H-24" value="Не прочитано за сутки" style="edgeLabel;html=1;align=center;verticalAlign=middle;resizable=0;points=[];fontSize=12;" parent="io1wwQr1_xJZZvbiRL2H-23" vertex="1" connectable="0">
          <mxGeometry x="0.2" y="-2" relative="1" as="geometry">
            <mxPoint y="30" as="offset" />
          </mxGeometry>
        </mxCell>
        <mxCell id="io1wwQr1_xJZZvbiRL2H-25" value="" style="endArrow=classic;html=1;rounded=0;fontSize=12;startSize=8;endSize=8;curved=0;exitX=0;exitY=0.5;exitDx=0;exitDy=0;entryX=0.333;entryY=0;entryDx=0;entryDy=0;entryPerimeter=0;" parent="1" source="io1wwQr1_xJZZvbiRL2H-4" target="io1wwQr1_xJZZvbiRL2H-7" edge="1">
          <mxGeometry width="50" height="50" relative="1" as="geometry">
            <mxPoint x="70" y="580" as="sourcePoint" />
            <mxPoint x="80" y="620" as="targetPoint" />
            <Array as="points">
              <mxPoint x="100" y="580" />
            </Array>
          </mxGeometry>
        </mxCell>
        <mxCell id="io1wwQr1_xJZZvbiRL2H-26" value="Клиент открыл уведомления" style="edgeLabel;html=1;align=center;verticalAlign=middle;resizable=0;points=[];fontSize=12;" parent="io1wwQr1_xJZZvbiRL2H-25" vertex="1" connectable="0">
          <mxGeometry x="0.3625" y="1" relative="1" as="geometry">
            <mxPoint as="offset" />
          </mxGeometry>
        </mxCell>
        <mxCell id="io1wwQr1_xJZZvbiRL2H-27" value="&lt;b&gt;&lt;font style=&quot;font-size: 23px;&quot;&gt;Диаграмма состояний напоминания&lt;/font&gt;&lt;/b&gt;" style="text;html=1;align=center;verticalAlign=middle;whiteSpace=wrap;rounded=0;" parent="1" vertex="1">
          <mxGeometry x="190" y="-40" width="430" height="90" as="geometry" />
        </mxCell>
        <mxCell id="io1wwQr1_xJZZvbiRL2H-28" value="Конец" style="ellipse;whiteSpace=wrap;html=1;aspect=fixed;" parent="1" vertex="1">
          <mxGeometry x="370" y="800" width="40" height="40" as="geometry" />
        </mxCell>
        <mxCell id="io1wwQr1_xJZZvbiRL2H-29" value="" style="endArrow=classic;html=1;rounded=0;fontSize=12;startSize=8;endSize=8;curved=0;exitX=0.5;exitY=1;exitDx=0;exitDy=0;entryX=0;entryY=0.5;entryDx=0;entryDy=0;" parent="1" source="io1wwQr1_xJZZvbiRL2H-7" target="io1wwQr1_xJZZvbiRL2H-28" edge="1">
          <mxGeometry width="50" height="50" relative="1" as="geometry">
            <mxPoint x="190" y="830" as="sourcePoint" />
            <mxPoint x="240" y="780" as="targetPoint" />
            <Array as="points">
              <mxPoint x="120" y="820" />
            </Array>
          </mxGeometry>
        </mxCell>
        <mxCell id="io1wwQr1_xJZZvbiRL2H-30" value="" style="endArrow=classic;html=1;rounded=0;fontSize=12;startSize=8;endSize=8;curved=1;entryX=0.25;entryY=0;entryDx=0;entryDy=0;entryPerimeter=0;exitX=0.75;exitY=1;exitDx=0;exitDy=0;" parent="1" edge="1">
          <mxGeometry width="50" height="50" relative="1" as="geometry">
            <mxPoint x="389.5" y="720" as="sourcePoint" />
            <mxPoint x="389.5" y="800" as="targetPoint" />
          </mxGeometry>
        </mxCell>
        <mxCell id="io1wwQr1_xJZZvbiRL2H-32" value="" style="endArrow=classic;html=1;rounded=0;fontSize=12;startSize=8;endSize=8;curved=0;entryX=1;entryY=0.5;entryDx=0;entryDy=0;" parent="1" target="io1wwQr1_xJZZvbiRL2H-28" edge="1">
          <mxGeometry width="50" height="50" relative="1" as="geometry">
            <mxPoint x="560" y="730" as="sourcePoint" />
            <mxPoint x="520" y="820" as="targetPoint" />
            <Array as="points">
              <mxPoint x="560" y="820" />
            </Array>
          </mxGeometry>
        </mxCell>
        <mxCell id="io1wwQr1_xJZZvbiRL2H-33" value="" style="endArrow=classic;html=1;rounded=0;fontSize=12;startSize=8;endSize=8;curved=0;entryX=0.908;entryY=0.988;entryDx=0;entryDy=0;entryPerimeter=0;" parent="1" target="io1wwQr1_xJZZvbiRL2H-3" edge="1">
          <mxGeometry width="50" height="50" relative="1" as="geometry">
            <mxPoint x="510" y="560" as="sourcePoint" />
            <mxPoint x="440" y="490" as="targetPoint" />
            <Array as="points">
              <mxPoint x="510" y="530" />
              <mxPoint x="440" y="530" />
            </Array>
          </mxGeometry>
        </mxCell>
        <mxCell id="io1wwQr1_xJZZvbiRL2H-34" value="Повтор до 3 раз" style="edgeLabel;html=1;align=center;verticalAlign=middle;resizable=0;points=[];fontSize=12;" parent="io1wwQr1_xJZZvbiRL2H-33" vertex="1" connectable="0">
          <mxGeometry x="-0.0605" y="3" relative="1" as="geometry">
            <mxPoint as="offset" />
          </mxGeometry>
        </mxCell>
        <mxCell id="io1wwQr1_xJZZvbiRL2H-35" value="&lt;font style=&quot;font-size: 17px;&quot;&gt;&lt;strong style=&quot;&quot; data-end=&quot;849&quot; data-start=&quot;840&quot;&gt;Цель:&lt;/strong&gt;&amp;nbsp;Показать статус отправки и обработки уведомлений&lt;br&gt;&lt;strong style=&quot;&quot; data-end=&quot;1108&quot; data-start=&quot;1096&quot;&gt;Область:&lt;/strong&gt; &lt;strong style=&quot;&quot; data-end=&quot;1118&quot; data-start=&quot;1109&quot;&gt;to be&lt;/strong&gt;&lt;/font&gt;" style="text;html=1;align=left;verticalAlign=middle;whiteSpace=wrap;rounded=0;" parent="1" vertex="1">
          <mxGeometry x="-50" y="40" width="390" height="110" as="geometry" />
        </mxCell>
      </root>
    </mxGraphModel>
  </diagram>
</mxfile>
